Coordinates
version=1
nRows=5
nColumns=40
inDegrees=yes

Units are S.I. units (second, meters, Newtons, ...)
Angles are in degrees.

endheader
time	pelvis_tilt	pelvis_list	pelvis_rotation	pelvis_tx	pelvis_ty	pelvis_tz	hip_flexion_r	hip_adduction_r	hip_rotation_r	knee_angle_r	knee_angle_r_beta	ankle_angle_r	subtalar_angle_r	mtp_angle_r	hip_flexion_l	hip_adduction_l	hip_rotation_l	knee_angle_l	knee_angle_l_beta	ankle_angle_l	subtalar_angle_l	mtp_angle_l	lumbar_extension	lumbar_bending	lumbar_rotation	arm_flex_r	arm_add_r	arm_rot_r	elbow_flex_r	pro_sup_r	wrist_flex_r	wrist_dev_r	arm_flex_l	arm_add_l	arm_rot_l	elbow_flex_l	pro_sup_l	wrist_flex_l	wrist_dev_l
      0.35000000	     -3.54198414	     -0.15006974	     -1.13615132	     -0.53630291	      0.94599049	      1.07498426	     -8.64982256	     -2.93105835	    -19.11132558	    -10.27108290	     -0.17926421	      9.64652346	      9.37718487	    -14.50969523	     30.36557187	      1.93097285	     18.64407841	    -20.22458285	     -0.35298556	      2.80109259	     10.39978460	     12.04621426	     -2.29591279	     -2.62718365	      3.74673685	     16.45820545	    -16.35862306	    -11.02845264	     35.20756991	     89.95437384	      0.00000000	      0.00000000	    -13.95938560	     19.94626047	      9.42293682	     14.14534796	     89.95437384	      0.00000000	      0.00000000
      0.36000000	     -3.25606320	     -0.05873306	     -1.50093530	     -0.52178259	      0.94408287	      1.07531856	     -9.99538494	     -3.18545375	    -19.38742829	    -10.10477157	     -0.17636153	      9.35862348	     10.18770308	    -14.88697596	     29.80885109	      1.94904490	     19.63896590	    -17.03402927	     -0.29729990	      1.97253183	      8.70120806	     12.00011624	     -2.58328882	     -2.72390182	      4.30050133	     16.77428577	    -16.82949882	    -10.55765712	     36.90285044	     89.95437384	      0.00000000	      0.00000000	    -14.33657745	     20.27047043	      9.91361309	     11.91475260	     89.95437384	      0.00000000	      0.00000000
      0.37000000	     -3.21409660	     -0.16725144	     -1.76048417	     -0.50703198	      0.94162129	      1.07551158	    -10.99806423	     -3.29375714	    -20.00024329	    -10.17917997	     -0.17766021	      9.28073572	     11.55404483	    -15.77606584	     29.89451615	      2.37429811	     21.22934808	    -15.14511416	     -0.26433211	      1.61196151	      5.98241010	     10.81581986	     -2.52795929	     -2.60370259	      4.63701018	     17.25597675	    -17.12568318	    -10.39180960	     38.09490031	     89.95437384	      0.00000000	      0.00000000	    -15.12283822	     20.56891077	     10.44303915	     10.30712787	     89.95437384	      0.00000000	      0.00000000
      0.38000000	     -3.22220984	     -0.15402536	     -1.99742434	     -0.49232833	      0.93934071	      1.07541752	    -11.79439020	     -3.55248203	    -20.20647240	    -10.54725177	     -0.18408427	      9.22465266	     11.97853257	    -16.13611757	     29.96976710	      2.58773997	     22.24575551	    -13.56515313	     -0.23675659	      0.99507603	      3.57493635	     10.25584051	     -2.40325320	     -2.61679488	      5.04340432	     17.46032394	    -17.40539525	    -10.45651194	     39.50307923	     89.95437384	      0.00000000	      0.00000000	    -15.72043688	     20.93330232	     10.08512959	      8.50998280	     89.95437384	      0.00000000	      0.00000000
      0.39000000	     -3.15770138	     -0.06255920	     -2.31524380	     -0.47710427	      0.93739147	      1.07527678	    -12.62012298	     -3.98220271	    -20.46862934	    -11.02007320	     -0.19233656	      8.91766109	     12.72955813	    -16.53623164	     29.88240180	      2.80602577	     23.09124466	    -12.46667323	     -0.21758449	      0.34762547	      0.52179905	      9.45452621	     -2.27674955	     -2.70838383	      5.51756864	     17.52090558	    -17.61880736	    -10.68212358	     40.88760056	     89.95437384	      0.00000000	      0.00000000	    -16.38791505	     21.28651425	      9.10180863	      6.85346959	     89.95437384	      0.00000000	      0.00000000
